<?xml version="1.0" standalone="no"?>
<!DOCTYPE svg PUBLIC "-//W3C//DTD SVG 20010904//EN"
 "http://www.w3.org/TR/2001/REC-SVG-20010904/DTD/svg10.dtd">
<svg version="1.0" xmlns="http://www.w3.org/2000/svg"
 width="128.000000pt" height="128.000000pt" viewBox="0 0 128.000000 128.000000"
 preserveAspectRatio="xMidYMid meet">

<g transform="translate(0.000000,128.000000) scale(0.100000,-0.100000)"
fill="#000000" stroke="none">
<path d="M104 1211 c-51 -31 -55 -54 -52 -291 l3 -215 233 -3 233 -2 30 29 29
30 -2 233 -3 233 -220 3 c-201 2 -223 0 -251 -17z"/>
<path d="M904 1211 c-33 -20 -54 -64 -54 -112 0 -27 -3 -29 -36 -29 -69 0
-113 -41 -114 -105 0 -22 7 -51 16 -64 19 -26 71 -51 109 -51 20 0 25 -5 25
-25 0 -38 25 -90 51 -109 13 -9 42 -16 64 -16 64 1 105 45 105 114 0 33 2 36
30 36 51 0 98 26 116 63 37 77 -16 157 -102 157 l-44 0 0 45 c0 89 -93 143
-166 96z"/>
<path d="M57 573 c-4 -3 -7 -103 -7 -220 0 -316 -11 -305 307 -301 l218 3 3
233 2 233 -29 30 -29 29 -230 0 c-126 0 -232 -3 -235 -7z"/>
<path d="M729 551 l-29 -30 2 -233 3 -233 218 -3 c320 -4 309 -15 305 305 l-3
218 -233 3 -233 2 -30 -29z"/>
</g>
</svg>
