<?xml version="1.0" standalone="no"?>
<!DOCTYPE svg PUBLIC "-//W3C//DTD SVG 20010904//EN"
 "http://www.w3.org/TR/2001/REC-SVG-20010904/DTD/svg10.dtd">
<svg version="1.0" xmlns="http://www.w3.org/2000/svg"
 width="128.000000pt" height="128.000000pt" viewBox="0 0 128.000000 128.000000"
 preserveAspectRatio="xMidYMid meet">

<g transform="translate(0.000000,128.000000) scale(0.100000,-0.100000)"
fill="#000000" stroke="none">
<path d="M565 1224 c-131 -20 -239 -76 -336 -173 -121 -121 -172 -243 -172
-411 0 -168 51 -290 172 -411 121 -121 244 -173 411 -173 262 0 490 172 566
430 25 84 23 238 -5 324 -59 186 -215 339 -400 394 -57 17 -185 27 -236 20z
m190 -119 c172 -45 305 -179 350 -352 65 -249 -94 -511 -350 -578 -251 -65
-513 94 -580 350 -89 343 237 669 580 580z"/>
<path d="M611 893 c-18 -16 -21 -31 -23 -108 l-3 -90 -93 -3 c-85 -3 -93 -5
-108 -27 -15 -23 -15 -27 0 -50 15 -22 23 -24 108 -27 l93 -3 3 -93 c3 -85 5
-93 27 -108 23 -15 27 -15 50 0 22 15 24 23 27 108 l3 93 93 3 c85 3 93 5 108
27 15 23 15 27 0 50 -15 22 -23 24 -108 27 l-93 3 -3 90 c-2 77 -5 92 -23 108
-12 9 -25 17 -29 17 -4 0 -17 -8 -29 -17z"/>
</g>
</svg>
