<?xml version="1.0" standalone="no"?>
<!DOCTYPE svg PUBLIC "-//W3C//DTD SVG 20010904//EN"
 "http://www.w3.org/TR/2001/REC-SVG-20010904/DTD/svg10.dtd">
<svg version="1.0" xmlns="http://www.w3.org/2000/svg"
 width="128.000000pt" height="128.000000pt" viewBox="0 0 128.000000 128.000000"
 preserveAspectRatio="xMidYMid meet">

<g transform="translate(0.000000,128.000000) scale(0.100000,-0.100000)"
fill="#000000" stroke="none">
<path d="M131 1213 c-16 -13 -30 -51 -51 -133 l-30 -115 0 -437 c0 -425 1
-439 20 -458 20 -20 33 -20 570 -20 537 0 550 0 570 20 19 19 20 33 20 459 l0
438 -59 121 c-33 66 -69 125 -80 131 -13 7 -173 11 -479 11 -423 0 -462 -1
-481 -17z m927 -138 c12 -25 22 -50 22 -55 0 -6 -165 -10 -450 -10 -310 0
-450 3 -450 11 0 5 5 30 11 55 l11 44 417 0 417 0 22 -45z m62 -540 l0 -375
-480 0 -480 0 0 375 0 375 480 0 480 0 0 -375z"/>
<path d="M607 788 c-14 -11 -17 -38 -19 -190 l-3 -177 -44 29 c-24 17 -52 30
-61 30 -25 0 -52 -35 -48 -61 4 -29 172 -148 208 -148 26 0 196 112 214 140
14 23 -17 69 -47 69 -12 0 -42 -14 -67 -30 l-45 -30 -3 178 c-2 152 -5 179
-19 190 -9 6 -24 12 -33 12 -9 0 -24 -6 -33 -12z"/>
</g>
</svg>
