<?xml version="1.0" standalone="no"?>
<!DOCTYPE svg PUBLIC "-//W3C//DTD SVG 20010904//EN"
 "http://www.w3.org/TR/2001/REC-SVG-20010904/DTD/svg10.dtd">
<svg version="1.0" xmlns="http://www.w3.org/2000/svg"
 width="128.000000pt" height="128.000000pt" viewBox="0 0 128.000000 128.000000"
 preserveAspectRatio="xMidYMid meet">

<g transform="translate(0.000000,128.000000) scale(0.100000,-0.100000)"
fill="#000000" stroke="none">
<path d="M696 944 l-317 -306 3 -121 3 -122 123 0 123 0 323 300 c308 286 323
301 307 319 -9 10 -68 67 -132 127 l-116 108 -317 -305z"/>
<path d="M0 635 l0 -605 640 0 640 0 0 305 0 305 -65 0 -65 0 0 -245 0 -245
-510 0 -510 0 0 485 0 485 255 0 255 0 0 60 0 60 -320 0 -320 0 0 -605z"/>
</g>
</svg>
